<svg id="eO6mNK0baHW1" xmlns="http://www.w3.org/2000/svg" xmlns:xlink="http://www.w3.org/1999/xlink" viewBox="0 0 300 300" shape-rendering="geometricPrecision" text-rendering="geometricPrecision" project-id="5be94f4b6bdf4643b24e4a3078e7e92d" export-id="05bcdc6321e042e99588ab282c26d6ef" cached="false"><ellipse rx="30.240238" ry="30.240238" transform="translate(251.158981 259.566078)" fill="#2172af" stroke-width="0"/><ellipse rx="30.240238" ry="30.240238" transform="translate(251.158981 190.758581)" fill="#2172af" stroke-width="0"/><ellipse rx="30.240238" ry="30.240238" transform="translate(251.158981 119.759762)" fill="#2172af" stroke-width="0"/><ellipse rx="30.240238" ry="30.240238" transform="translate(251.158978 48.744697)" fill="#2172af" stroke-width="0"/><ellipse rx="30.240238" ry="30.240238" transform="translate(185.678504 259.566078)" fill="#2172af" stroke-width="0"/><ellipse rx="30.240238" ry="30.240238" transform="translate(185.678504 190.758581)" fill="#2172af" stroke-width="0"/><ellipse rx="30.240238" ry="30.240238" transform="translate(185.678504 119.759762)" fill="#2172af" stroke-width="0"/><ellipse rx="30.240238" ry="30.240238" transform="translate(185.678502 48.744697)" fill="#2172af" stroke-width="0"/><ellipse rx="30.240238" ry="30.240238" transform="translate(120.084762 259.566078)" fill="#2172af" stroke-width="0"/><ellipse rx="30.240238" ry="30.240238" transform="translate(120.084762 190.758581)" fill="#2172af" stroke-width="0"/><ellipse rx="30.240238" ry="30.240238" transform="translate(120.084762 119.759762)" fill="#2172af" stroke-width="0"/><ellipse rx="30.240238" ry="30.240238" transform="translate(120.08476 48.744697)" fill="#2172af" stroke-width="0"/><ellipse rx="30.240238" ry="30.240238" transform="translate(54.604287 259.566078)" fill="#2172af" stroke-width="0"/><ellipse rx="30.240238" ry="30.240238" transform="translate(54.604287 190.758581)" fill="#2172af" stroke-width="0"/><ellipse rx="30.240238" ry="30.240238" transform="translate(54.604287 119.759762)" fill="#2172af" stroke-width="0"/><ellipse rx="30.240238" ry="30.240238" transform="translate(54.604285 48.744697)" fill="#2172af" stroke-width="0"/></svg>
