<svg id="ewtkSYfHDoz1" xmlns="http://www.w3.org/2000/svg" xmlns:xlink="http://www.w3.org/1999/xlink" viewBox="0 0 400 400" shape-rendering="geometricPrecision" text-rendering="geometricPrecision" project-id="5be94f4b6bdf4643b24e4a3078e7e92d" export-id="44563dba7965460cab2a7ac974fe81e5" cached="false"><ellipse rx="30.240238" ry="30.240238" transform="translate(331.40752 339.833178)" fill="#2172af" stroke-width="0"/><ellipse rx="30.240238" ry="30.240238" transform="translate(331.40752 270.98822)" fill="#2172af" stroke-width="0"/><ellipse rx="30.240238" ry="30.240238" transform="translate(265.147176 339.833161)" fill="#2172af" stroke-width="0"/><ellipse rx="30.240238" ry="30.240238" transform="translate(265.147176 270.988203)" fill="#2172af" stroke-width="0"/><ellipse rx="30.240238" ry="30.240238" transform="translate(331.40752 202.180723)" fill="#2172af" stroke-width="0"/><ellipse rx="30.240238" ry="30.240238" transform="translate(265.147176 202.180706)" fill="#2172af" stroke-width="0"/><ellipse rx="30.240238" ry="30.240238" transform="translate(331.40752 131.181904)" fill="#2172af" stroke-width="0"/><ellipse rx="30.240238" ry="30.240238" transform="translate(265.147176 131.181887)" fill="#2172af" stroke-width="0"/><ellipse rx="30.240238" ry="30.240238" transform="translate(331.40752 60.166839)" fill="#2172af" stroke-width="0"/><ellipse rx="30.240238" ry="30.240238" transform="translate(265.147176 60.166822)" fill="#2172af" stroke-width="0"/><ellipse rx="30.240238" ry="30.240238" transform="translate(199.666699 339.833161)" fill="#2172af" stroke-width="0"/><ellipse rx="30.240238" ry="30.240238" transform="translate(199.666699 270.988203)" fill="#2172af" stroke-width="0"/><ellipse rx="30.240238" ry="30.240238" transform="translate(199.666699 202.180706)" fill="#2172af" stroke-width="0"/><ellipse rx="30.240238" ry="30.240238" transform="translate(199.666699 131.181887)" fill="#2172af" stroke-width="0"/><ellipse rx="30.240238" ry="30.240238" transform="translate(199.666697 60.166822)" fill="#2172af" stroke-width="0"/><ellipse rx="30.240238" ry="30.240238" transform="translate(134.072957 339.833161)" fill="#2172af" stroke-width="0"/><ellipse rx="30.240238" ry="30.240238" transform="translate(134.072957 270.988203)" fill="#2172af" stroke-width="0"/><ellipse rx="30.240238" ry="30.240238" transform="translate(134.072957 202.180706)" fill="#2172af" stroke-width="0"/><ellipse rx="30.240238" ry="30.240238" transform="translate(134.072957 131.181887)" fill="#2172af" stroke-width="0"/><ellipse rx="30.240238" ry="30.240238" transform="translate(134.072955 60.166822)" fill="#2172af" stroke-width="0"/><ellipse rx="30.240238" ry="30.240238" transform="translate(68.592482 339.833161)" fill="#2172af" stroke-width="0"/><ellipse rx="30.240238" ry="30.240238" transform="translate(68.592482 270.988203)" fill="#2172af" stroke-width="0"/><ellipse rx="30.240238" ry="30.240238" transform="translate(68.592482 202.180706)" fill="#2172af" stroke-width="0"/><ellipse rx="30.240238" ry="30.240238" transform="translate(68.592482 131.181887)" fill="#2172af" stroke-width="0"/><ellipse rx="30.240238" ry="30.240238" transform="translate(68.59248 60.166822)" fill="#2172af" stroke-width="0"/></svg>
